<svg xmlns="http://www.w3.org/2000/svg" viewBox="0 0 24 24" width="24" height="24" style="fill: rgb(117, 117, 117);">
    <path d="M 5 2 C 3.346 2 2 3.346 2 5 L 2 19 C 2 20.654 3.346 22 5 22 L 19 22 C 20.654 22 22 20.654 22 19 L 22 5 C 22 3.346 20.654 2 19 2 L 5 2 z M 5 4 L 19 4 C 19.551 4 20 4.448 20 5 L 20 19 C 20 19.552 19.551 20 19 20 L 18 20 L 18 18 L 13 18 L 13 20 L 5 20 C 4.449 20 4 19.552 4 19 L 4 5 C 4 4.448 4.449 4 5 4 z M 12 6 C 10.895431 6 10 6.8954305 10 8 C 10 9.1045695 10.895431 10 12 10 C 13.104569 10 14 9.1045695 14 8 C 14 6.8954305 13.104569 6 12 6 z M 7.5 8 C 6.6715729 8 6 8.6715729 6 9.5 C 6 10.328427 6.6715729 11 7.5 11 C 8.3284271 11 9 10.328427 9 9.5 C 9 8.6715729 8.3284271 8 7.5 8 z M 16.5 8 C 15.671573 8 15 8.6715729 15 9.5 C 15 10.328427 15.671573 11 16.5 11 C 17.328427 11 18 10.328427 18 9.5 C 18 8.6715729 17.328427 8 16.5 8 z M 12 11 C 9.339 11 8.5 13.5 8.5 13.5 C 8.5 12.654 9 12 9 12 C 8.7 11.814 7.9285 11.6875 7.5625 11.6875 C 6.3495 11.6885 5 12.8795 5 13.6875 L 5 16 L 19 16 L 19 13.6875 C 19 12.8795 17.4875 11.6875 16.4375 11.6875 C 16.0715 11.6875 15.3 11.814 15 12 C 15 12 15.5 12.654 15.5 13.5 C 15.5 13.5 14.661 11 12 11 z"/>
</svg>